<?xml version="1.0" encoding="UTF-8" standalone="no" ?>
<svg xmlns="http://www.w3.org/2000/svg" version="1.1" width="40" height="40"
     viewBox="0 0 640 640" xml:space="preserve">
    <g transform="matrix(0.25 0 0 0.25 20 500)" id="EcPDt97o7ui960NTc8-Ex">
        <style type="text/css">
            .st0{fill:url(#SVGID_1_);}
            .st1{fill:#FFFFFF;}
        </style>
        <g id="Logotypes_1_">
            <g>
                <g id="Logotypes">
                    <g>

                            <linearGradient id="SVGID_1_" gradientUnits="userSpaceOnUse" x1="499.3847" y1="-619.5934"
                                            x2="-0.3701" y2="-1119.3483"
                                            gradientTransform="matrix(0.9998 0 0 -0.9998 0.4448 -599.1481)">
                            <stop offset="3.435144e-03" style="stop-color:#E44857"/>
                                <stop offset="0.4689" style="stop-color:#C711E1"/>
                                <stop offset="1" style="stop-color:#7F52FF"/>
                        </linearGradient>
                        <polygon class="st0" points="499.8,519.9 0,519.9 0,20.4 499.8,20.4 249.9,270 				"/>
                    </g>
                </g>
                <g>
                    <polygon class="st1" points="1104.6,18.8 1004.3,18.8 788.1,250.7 788.1,20.4 708.2,20.4 708.2,519.9 788.1,519.9 788.1,278.6
                        1005.9,519.9 1107.7,519.9 877.4,261.6 			"/>
                    <path class="st1" d="M1375.6,170.8c-28.2-15.7-61.1-25.1-95.6-25.1c-36,0-68.9,7.8-97.1,25.1c-28.2,17.3-51.7,39.2-67.4,67.4
                        c-15.7,29.8-23.5,62.7-23.5,98.7s7.8,70.5,23.5,98.7s37.6,51.7,67.4,67.4c28.2,15.7,61.1,25.1,97.1,25.1c36,0,68.9-7.8,97.1-25.1
                        c28.2-15.7,50.1-39.2,65.8-67.4c15.7-29.8,23.5-62.7,23.5-98.7s-9.4-68.9-25.1-98.7C1425.8,209.9,1403.8,186.4,1375.6,170.8z
                         M1369.4,400.8c-9.4,18.8-21.9,32.9-37.6,42.3c-15.7,11-34.5,15.7-54.8,15.7c-20.3,0-39.2-4.7-56.4-15.7
                        c-15.7-11-28.2-25.1-37.6-42.3c-9.4-18.8-12.5-39.2-12.5-62.7s4.7-45.4,14.1-62.7c9.4-18.8,21.9-32.9,37.6-42.3
                        c15.7-11,34.5-15.7,56.4-15.7c20.4,0,39.2,4.7,54.8,15.7c15.7,11,28.2,25.1,37.6,42.3c9.4,18.8,12.5,39.2,12.5,62.7
                        S1378.8,382,1369.4,400.8z"/>
                    <path class="st1" d="M1627.9,62.7h-76.8v62.7c0,9.4-1.6,17.2-7.8,21.9c-4.7,4.7-12.5,7.8-21.9,7.8h-37.6v65.8h65.8v197.4
                        c0,20.4,4.7,39.2,12.5,54.8c7.8,15.7,20.4,28.2,36,36c15.7,9.4,32.9,12.5,54.8,12.5h59.5v-68.9h-43.9c-11,0-20.4-3.1-28.2-12.5
                        c-6.3-7.8-11-18.8-11-31.3v-188h84.6v-65.8h-84.6V62.7H1627.9z"/>
                    <rect x="1773.6" class="st1" width="78.3" height="519.9"/>
                    <rect x="1941.2" y="1.6" class="st1" width="79.9" height="81.5"/>
                    <rect x="1941.2" y="155.1" class="st1" width="78.3" height="366.3"/>
                    <path class="st1" d="M2419.1,214.6c-11-21.9-26.6-39.2-47-50.1c-20.4-12.5-43.9-18.8-70.5-18.8c-28.2,0-53.3,7.8-75.2,20.4
                        c-17.2,11-31.3,26.6-42.3,43.9v-56.4h-75.2v366.3h78.3V314.6c0-20.4,3.1-37.6,11-53.3c7.8-15.7,18.8-26.6,31.3-36
                        c14.1-7.8,29.8-12.5,48.6-12.5c17.2,0,29.8,3.1,42.3,11c12.5,7.9,20.4,17.2,26.6,29.8c6.3,12.5,9.4,28.2,9.4,45.4v219.3h78.3
                        V289.6C2436.4,261.6,2430.2,236.6,2419.1,214.6z"/>
                </g>
            </g>
        </g>
    </g>


    <g transform="matrix(15.02 0 0 15.02 320.24 320.24)" id="B1p9suDLCu2sQ-diIaHKO">
        <style type="text/css">
            .st2{
                fill: rgb(179,181,179);
            }
            .st3 {
                fill: #3C3C3C;
            }
        </style>
        <filter id="SVGID_37" y="-25%" height="150%" x="-25%" width="150%">
            <feGaussianBlur in="SourceAlpha" stdDeviation="1"/>
            <feOffset dx="0" dy="0" result="oBlur"/>
            <feFlood flood-color="rgb(0,0,0)" flood-opacity="1"/>
            <feComposite in2="oBlur" operator="in"/>
            <feMerge>
                <feMergeNode/>
                <feMergeNode in="SourceGraphic"/>
            </feMerge>
        </filter>
        <g style="filter: url(#SVGID_37);">
		    <g transform="matrix(0.47 0 0 0.42 0 -5)" id="zX8BrZbb_5BPJhiUXQi6n">
                <path class="st2" vector-effect="non-scaling-stroke" transform=" translate(-40, -40)"
                      d="M 76.5 6.6 L 3.5 6.6 C 1.6 6.6 0 8.1 0 10.1 L 0 61.300000000000004 C 0 62.800000000000004 1.3 64.10000000000001 2.8 64.10000000000001 L 32.1 64.10000000000001 L 30.8 71.10000000000001 L 29.7 71.10000000000001 C 29 71.10000000000001 28.5 71.60000000000001 28.5 72.30000000000001 L 28.5 73.4 L 51.4 73.4 L 51.4 72.30000000000001 C 51.4 71.60000000000001 50.9 71.10000000000001 50.199999999999996 71.10000000000001 L 49.099999999999994 71.10000000000001 L 47.89999999999999 64.10000000000001 L 77.19999999999999 64.10000000000001 C 78.69999999999999 64.10000000000001 79.99999999999999 62.80000000000001 79.99999999999999 61.30000000000001 L 79.99999999999999 10.1 C 80 8.1 78.4 6.6 76.5 6.6 z M 40 8.1 C 40.6 8.1 41.1 8.6 41.1 9.2 C 41.1 9.799999999999999 40.6 10.299999999999999 40 10.299999999999999 C 39.4 10.299999999999999 38.9 9.799999999999999 38.9 9.2 C 38.9 8.6 39.4 8.1 40 8.1 z"
                      stroke-linecap="round"/>
            </g>
            <g transform="matrix(0.47 0 0 0.42 0 -18)" id="3i_taSqGo0R6v1D9oHnVw">
                <path class="st3" vector-effect="non-scaling-stroke" transform=" translate(-40, -9.21)"
                      d="M 38.9 9.2 C 38.9 8.6 39.4 8.1 40 8.1 C 40.6 8.1 41.1 8.6 41.1 9.2 C 41.1 9.799999999999999 40.6 10.299999999999999 40 10.299999999999999 C 39.4 10.4 38.9 9.9 38.9 9.2 z"
                      stroke-linecap="round"/>
            </g>
            <g transform="matrix(0.47 0 0 0.42 0 -7)" id="BN2POn4UKYdCwvGKGp_ED">
                <path class="st3" vector-effect="non-scaling-stroke" transform=" translate(-40, -33.15)"
                      d="M 5 11.7 L 75 11.7 L 75 54.599999999999994 L 5 54.599999999999994 L 5 11.7 z"
                      stroke-linecap="round"/>
            </g>
            <g transform="matrix(0.98 0 0 1 -4 -7.5)" style="" id="RCwz-saFEAXKmKhEqPEvy">
		        <style type="text/css">
                    .code {
                        white-space: pre;
                    }
                    .codeNames {
                        fill: #88BBFF
                    }
                    .codeArgs {
                        fill: #4477DD
                    }
                    .codeValues {
                        fill: #22EE22
                    }
                    .codePunctuation {
                        fill: #CC7733
                    }
                </style>

                <text xml:space="preserve" font-family="Open Sans" font-size="3" font-style="normal" font-weight="700"
                      style="opacity: 0.82">
                    <tspan x="-12" y="-5" class="code codeNames">Data(</tspan>
                    <tspan x="-10" y="-2" class="code codeArgs">id = </tspan>
                    <tspan x="-4" y="-2" class="code codeValues">3555</tspan>
                    <tspan x="3" y="-2" class="code codePunctuation">,</tspan>
                    <tspan x="-10" y="1" class="code codeArgs">year = </tspan>
                    <tspan x="0" y="1" class="code codeValues">2023</tspan>
                    <tspan x="7" y="1" class="code codePunctuation">,</tspan>
                    <tspan x="-10" y="4" class="code codeArgs">noWar = </tspan>
                    <tspan x="3" y="4" class="code codeValues">true</tspan>
                    <tspan x="9" y="4" class="code codePunctuation">,</tspan>
                    <tspan x="-12" y="7" class="code codeNames">)</tspan>
                </text>
            </g>
        </g>
    </g>
</svg>