<svg width="40" height="40" viewBox="0 0 40 40" fill="none" xmlns="http://www.w3.org/2000/svg">

    <defs>
    </defs>
    <g transform="matrix(0.47 0 0 0.55 20 20)" id="inywz3TFJH-JXhvME-05x">
        <g style="">
            <g transform="matrix(1 0 0 1 0 0)" id="Qp5dN1O0svzZCi4Twkbjf">
                <path style="stroke: none; stroke-width: 1; stroke-dasharray: none; stroke-linecap: butt; stroke-dashoffset: 0; stroke-linejoin: miter; stroke-miterlimit: 4; fill: rgb(179,181,179); fill-rule: nonzero; opacity: 1;"
                      vector-effect="non-scaling-stroke" transform=" translate(-40, -40)"
                      d="M 76.5 6.6 L 3.5 6.6 C 1.6 6.6 0 8.1 0 10.1 L 0 61.300000000000004 C 0 62.800000000000004 1.3 64.10000000000001 2.8 64.10000000000001 L 32.1 64.10000000000001 L 30.8 71.10000000000001 L 29.7 71.10000000000001 C 29 71.10000000000001 28.5 71.60000000000001 28.5 72.30000000000001 L 28.5 73.4 L 51.4 73.4 L 51.4 72.30000000000001 C 51.4 71.60000000000001 50.9 71.10000000000001 50.199999999999996 71.10000000000001 L 49.099999999999994 71.10000000000001 L 47.89999999999999 64.10000000000001 L 77.19999999999999 64.10000000000001 C 78.69999999999999 64.10000000000001 79.99999999999999 62.80000000000001 79.99999999999999 61.30000000000001 L 79.99999999999999 10.1 C 80 8.1 78.4 6.6 76.5 6.6 z M 40 8.1 C 40.6 8.1 41.1 8.6 41.1 9.2 C 41.1 9.799999999999999 40.6 10.299999999999999 40 10.299999999999999 C 39.4 10.299999999999999 38.9 9.799999999999999 38.9 9.2 C 38.9 8.6 39.4 8.1 40 8.1 z"
                      stroke-linecap="round"/>
            </g>
            <g transform="matrix(1 0 0 1 0 -30.79)" id="DQaBFq_q5vmOmKRF0HDfD">
                <path style="stroke: none; stroke-width: 1; stroke-dasharray: none; stroke-linecap: butt; stroke-dashoffset: 0; stroke-linejoin: miter; stroke-miterlimit: 4; fill: rgb(255,255,255); fill-rule: nonzero; opacity: 1;"
                      vector-effect="non-scaling-stroke" transform=" translate(-40, -9.21)"
                      d="M 38.9 9.2 C 38.9 8.6 39.4 8.1 40 8.1 C 40.6 8.1 41.1 8.6 41.1 9.2 C 41.1 9.799999999999999 40.6 10.299999999999999 40 10.299999999999999 C 39.4 10.4 38.9 9.9 38.9 9.2 z"
                      stroke-linecap="round"/>
            </g>
            <g transform="matrix(1 0 0 1 0 -6.85)" id="__uamT2TNYhe9ILY6HLAo">
                <path style="stroke: none; stroke-width: 1; stroke-dasharray: none; stroke-linecap: butt; stroke-dashoffset: 0; stroke-linejoin: miter; stroke-miterlimit: 4; fill: rgb(255,255,255); fill-rule: nonzero; opacity: 1;"
                      vector-effect="non-scaling-stroke" transform=" translate(-40, -33.15)"
                      d="M 5 11.7 L 75 11.7 L 75 54.599999999999994 L 5 54.599999999999994 L 5 11.7 z"
                      stroke-linecap="round"/>
            </g>
        </g>
    </g>
    <g transform="matrix(1 0 0 1.02 19.75 16.74)" style="" id="WFIyVMHO7u1LDfQxWQ8-C">
        <text xml:space="preserve" font-family="Open Sans" font-size="3" font-style="normal" font-weight="700"
              style="stroke: none; stroke-width: 1; stroke-dasharray: none; stroke-linecap: butt; stroke-dashoffset: 0; stroke-linejoin: miter; stroke-miterlimit: 4; fill: rgb(0,0,0); fill-rule: nonzero; opacity: 1; white-space: pre;"><tspan x="-15.75"
       y="-7.84">Data(</tspan>
            <tspan x="-15.75"
                   y="-4.45"
                   style="white-space: pre; ">    id = 3555,</tspan>
            <tspan x="-15.75"
                   y="-1.06"
                   style="white-space: pre; ">    year = 2023,</tspan>
            <tspan x="-15.75"
                   y="2.33"
                   style="white-space: pre; ">    noWar = true,</tspan>
            <tspan x="-15.75"
                   y="5.72">)</tspan>
</text>
    </g>
    <g transform="matrix(0.25 0 0 0.25 8.5 31.5)"
       id="rOWSAqXNkPyrLnQiMDCou">
        <g style="">
            <g transform="matrix(1 0 0 1 0 14.95)" id="_QBlestl_1D2V7j9BTiv4">
                <linearGradient id="SVGID_0" gradientUnits="userSpaceOnUse" gradientTransform="matrix(1 0 0 -1 0 61)"
                                x1="15.9594" y1="-13.0143" x2="44.3068" y2="15.3332">
                    <stop offset="9.677%" style="stop-color:rgb(0,149,213);stop-opacity: 1"/>
                    <stop offset="30.070000000000004%" style="stop-color:rgb(35,138,217);stop-opacity: 1"/>
                    <stop offset="62.11%" style="stop-color:rgb(85,123,222);stop-opacity: 1"/>
                    <stop offset="86.42999999999999%" style="stop-color:rgb(116,114,226);stop-opacity: 1"/>
                    <stop offset="100%" style="stop-color:rgb(128,110,227);stop-opacity: 1"/>
                </linearGradient>
                <path style="stroke: none; stroke-width: 1; stroke-dasharray: none; stroke-linecap: butt; stroke-dashoffset: 0; stroke-linejoin: miter; stroke-miterlimit: 4; fill: url(#SVGID_0); fill-rule: nonzero; opacity: 1;"
                      vector-effect="non-scaling-stroke" transform=" translate(-30, -44.95)"
                      d="M 0 60 L 30.1 29.9 L 60 60 z" stroke-linecap="round"/>
            </g>
            <g transform="matrix(1 0 0 1 -14.95 -13.75)" id="tBsgcrDm_aNoM0F3BNZk3">
                <linearGradient id="SVGID_1" gradientUnits="userSpaceOnUse" gradientTransform="matrix(1 0 0 -1 0 61)"
                                x1="4.2092" y1="48.9409" x2="20.6734" y2="65.405">
                    <stop offset="11.83%" style="stop-color:rgb(0,149,213);stop-opacity: 1"/>
                    <stop offset="41.78%" style="stop-color:rgb(60,131,220);stop-opacity: 1"/>
                    <stop offset="69.62%" style="stop-color:rgb(109,116,225);stop-opacity: 1"/>
                    <stop offset="83.33%" style="stop-color:rgb(128,110,227);stop-opacity: 1"/>
                </linearGradient>
                <path style="stroke: none; stroke-width: 1; stroke-dasharray: none; stroke-linecap: butt; stroke-dashoffset: 0; stroke-linejoin: miter; stroke-miterlimit: 4; fill: url(#SVGID_1); fill-rule: nonzero; opacity: 1;"
                      vector-effect="non-scaling-stroke" transform=" translate(-15.05, -16.25)"
                      d="M 0 0 L 30.1 0 L 0 32.5 z" stroke-linecap="round"/>
            </g>
            <g transform="matrix(1 0 0 1 0 0)" id="6xKING6FtZvJJ_uCFGYBA">
                <linearGradient id="SVGID_2" gradientUnits="userSpaceOnUse" gradientTransform="matrix(1 0 0 -1 0 61)"
                                x1="-10.1017" y1="5.8362" x2="45.7315" y2="61.6694">
                    <stop offset="10.75%" style="stop-color:rgb(199,87,188);stop-opacity: 1"/>
                    <stop offset="21.38%" style="stop-color:rgb(208,96,154);stop-opacity: 1"/>
                    <stop offset="42.54%" style="stop-color:rgb(225,114,92);stop-opacity: 1"/>
                    <stop offset="60.480000000000004%" style="stop-color:rgb(238,126,47);stop-opacity: 1"/>
                    <stop offset="74.3%" style="stop-color:rgb(245,134,19);stop-opacity: 1"/>
                    <stop offset="82.32000000000001%" style="stop-color:rgb(248,137,9);stop-opacity: 1"/>
                </linearGradient>
                <path style="stroke: none; stroke-width: 1; stroke-dasharray: none; stroke-linecap: butt; stroke-dashoffset: 0; stroke-linejoin: miter; stroke-miterlimit: 4; fill: url(#SVGID_2); fill-rule: nonzero; opacity: 1;"
                      vector-effect="non-scaling-stroke" transform=" translate(-30, -30)"
                      d="M 30.1 0 L 0 31.7 L 0 60 L 30.1 29.9 L 60 0 z" stroke-linecap="round"/>
            </g>
        </g>
    </g>
</svg>